<?xml version="1.0" encoding="utf-8"?>
<!-- Svg Vector Icons : http://www.onlinewebfonts.com/icon -->
<!DOCTYPE svg PUBLIC "-//W3C//DTD SVG 1.1//EN" "http://www.w3.org/Graphics/SVG/1.1/DTD/svg11.dtd">
<svg version="1.1" xmlns="http://www.w3.org/2000/svg" xmlns:xlink="http://www.w3.org/1999/xlink" x="0px" y="0px" viewBox="0 0 1000 1000" enable-background="new 0 0 1000 1000" xml:space="preserve">
<metadata> Svg Vector Icons : http://www.onlinewebfonts.com/icon </metadata>
<g><g transform="translate(0.000000,512.000000) scale(0.100000,-0.100000)"><path d="M4443.4,5020c-674.7-75-1474.3-357.5-2047.1-718.9C1141.2,3505.3,310.8,2198.3,128.2,735.6c-32.7-274.9-38.4-872.6-9.6-1149.4c240.3-2270,2029.8-4080.6,4305.5-4359.4c359.4-44.2,1047.6-28.8,1370.5,28.8c515.1,92.3,922.6,224.9,1368.5,444c513.2,251.8,913,542,1320.5,953.4C9266-2555.1,9725.4-1607.5,9875.3-475.3c42.3,334.4,28.8,1062.9-28.8,1395.4c-192.2,1120.6-703.5,2064.4-1535.8,2839c-738.1,682.3-1701.1,1128.3-2714,1253.2C5339.1,5043,4695.2,5048.8,4443.4,5020z M5590.9,4685.5c836.1-109.6,1614.6-438.2,2296.9-970.7c369.1-286.4,805.4-784.2,1059.1-1201.3c453.6-749.6,667-1516.6,667-2393c0-599.7-92.3-1112.9-296-1637.6c-495.9-1284-1526.1-2275.8-2819.7-2714c-503.6-171.1-945.7-242.2-1497.3-242.2c-745.8,0-1391.6,148-2047.1,470.9C2063.8-3564.2,1356.5-2874.1,899-1993.8C545.3-1313.4,387.7-659.9,387.7,120.5c0,772.7,153.8,1414.7,503.6,2100.9c367.1,722.7,945.7,1349.3,1668.4,1808.7c495.9,315.2,1205.2,569,1835.6,653.5C4666.3,4722,5310.3,4722,5590.9,4685.5z"/><path d="M4889.3,2869.1c-149.9-21.2-230.7-46.1-378.7-121.1c-203.8-101.9-409.4-357.5-469-582.4c-19.2-75-25-80.7-107.6-90.3c-272.9-38.4-497.8-274.9-522.8-553.6c-19.2-209.5,94.2-451.7,267.2-563.2l90.3-59.6V-189l1.9-1087.9l-86.5-32.7c-75-30.7-201.8-142.2-201.8-182.6c0-7.7-48.1-11.5-105.7-5.8c-86.5,7.7-117.2,0-190.3-42.3c-100-57.7-161.5-136.5-194.1-246c-19.2-67.3-34.6-82.6-113.4-113.4c-115.3-44.2-161.5-82.6-205.7-180.7c-69.2-148-28.8-332.5,94.2-436.3c53.8-44.2,80.7-51.9,276.8-63.4c119.2-5.8,895.7-9.6,1726.1-5.8l1508.9,5.8l115.3,46.1c78.8,32.7,149.9,80.7,223,153.8c140.3,140.3,186.4,261.4,203.8,530.5l11.5,198l98,40.4c134.6,55.8,223,132.6,290.2,253.7l57.7,103.8v788.1v788.1l-57.7,103.8c-67.3,121.1-155.7,198-292.2,255.7L6826.8,724v92.3c0,90.3,5.8,98,113.4,198c155.7,144.2,203.7,255.6,203.7,470.9c0,134.5-9.6,180.7-48.1,259.5c-105.7,213.3-301.8,342.1-528.6,346c-130.7,1.9-140.3,5.8-240.3,86.5c-136.5,105.7-248,155.7-384.4,167.2c-103.8,9.6-111.5,15.4-161.4,94.2c-80.7,126.9-265.3,286.4-420.9,363.3C5202.6,2878.7,5085.4,2896,4889.3,2869.1z M5858.1,972c73-7.7,128.8-1.9,188.4,21.1l84.6,32.7l126.9-71.1c98-53.8,157.6-73,253.7-80.7l126.9-9.6l-11.5-117.3c-21.1-199.9-21.1-296-3.8-1510.8c11.5-851.5,9.6-1203.3-5.8-1260.9c-34.6-126.9-124.9-234.5-242.2-288.3l-101.9-48l-1007.2,5.8l-1009.1,5.8l-92.3,57.7c-69.2,42.3-109.6,86.5-148,161.4l-53.8,101.9v1439.7c0,1407,0,1439.7,36.5,1439.7c21.1,0,50,5.8,65.4,11.5c25,9.6,28.8-44.2,36.5-371c7.7-417.1,17.3-455.5,130.7-551.7c32.7-26.9,94.2-59.6,134.6-71.1l76.9-23v-588.2c0-501.7,3.8-595.9,30.8-632.4c34.6-50,88.4-53.8,130.7-11.5c26.9,25,30.8,113.4,30.8,659.3c0,620.9,0,630.5,40.4,667c98,86.5,113.4,163.4,113.4,565.1v374.8l198,1.9c215.3,1.9,330.6,34.6,494,138.4l86.5,55.7l94.2-46.1C5713.9,1002.7,5802.3,977.8,5858.1,972z"/><path d="M5196.9,116.7c-17.3-17.3-23.1-184.5-23.1-690c0-582.4,3.8-672.7,30.8-697.7c42.3-42.3,96.1-38.4,130.7,11.5c26.9,36.5,30.7,132.6,30.7,668.9c0,463.2-7.7,636.2-25,672.7C5314.1,135.9,5235.3,155.1,5196.9,116.7z"/><path d="M5967.6,116.7c-7.7-13.5-17.3-340.2-21.1-726.6c-3.8-745.8,0-791.9,86.5-803.4c21.1-3.8,53.8,7.7,71.1,25c26.9,28.8,30.8,111.5,30.8,741.9c0,453.6-7.7,724.6-19.2,749.6C6092.5,145.5,5992.6,153.2,5967.6,116.7z"/></g></g>
</svg>